<?xml version="1.0" encoding="utf-8"?>
<!-- Generator: Adobe Illustrator 15.0.0, SVG Export Plug-In  -->
<!DOCTYPE svg PUBLIC "-//W3C//DTD SVG 1.1//EN" "http://www.w3.org/Graphics/SVG/1.1/DTD/svg11.dtd" [
	<!ENTITY ns_flows "http://ns.adobe.com/Flows/1.0/">
]>
<svg version="1.1"
	 xmlns="http://www.w3.org/2000/svg" xmlns:xlink="http://www.w3.org/1999/xlink" xmlns:a="http://ns.adobe.com/AdobeSVGViewerExtensions/3.0/"
	 x="0px" y="0px" width="33px" height="33px" viewBox="0 0 33 33" enable-background="new 0 0 33 33" xml:space="preserve">
<defs>
</defs>
<path fill="#010101" d="M32.975,0H0.36C0.162,0,0,0.162,0,0.361v32.609c0,0.197,0.162,0.357,0.36,0.357h32.612
	c0.196,0,0.358-0.16,0.358-0.357V0.361C33.334,0.162,33.172,0,32.975,0z M16.75,16.847l-3.012,1.739
	c-0.172,0.1-0.452,0.262-0.623,0.359l-3.014,1.737C9.93,20.783,9.789,20.703,9.789,20.5v-7.676c0-0.195,0.141-0.276,0.312-0.181
	l3.014,1.738c0.171,0.099,0.451,0.261,0.623,0.358l3.012,1.738C16.921,16.586,16.921,16.748,16.75,16.847z M24.252,16.847
	l-3.012,1.739c-0.171,0.1-0.452,0.262-0.623,0.359l-3.014,1.737c-0.172,0.101-0.312,0.021-0.312-0.183v-7.676
	c0-0.195,0.141-0.276,0.312-0.181l3.014,1.738c0.171,0.099,0.452,0.261,0.623,0.358l3.012,1.738
	C24.424,16.586,24.424,16.748,24.252,16.847z"/>
</svg>
