<?xml version="1.0" encoding="utf-8"?>
<!-- Generator: Adobe Illustrator 15.0.0, SVG Export Plug-In  -->
<!DOCTYPE svg PUBLIC "-//W3C//DTD SVG 1.1//EN" "http://www.w3.org/Graphics/SVG/1.1/DTD/svg11.dtd" [
	<!ENTITY ns_flows "http://ns.adobe.com/Flows/1.0/">
]>
<svg version="1.1"
	 xmlns="http://www.w3.org/2000/svg" xmlns:xlink="http://www.w3.org/1999/xlink" xmlns:a="http://ns.adobe.com/AdobeSVGViewerExtensions/3.0/"
	 x="0px" y="0px" width="33px" height="33px" viewBox="0 0 33 33" enable-background="new 0 0 33 33" xml:space="preserve">
<defs>
</defs>
<path fill="#010101" d="M33.333,32.972V0.36c0-0.198-0.162-0.36-0.36-0.36H0.36C0.162,0,0,0.162,0,0.36v32.612
	c0,0.199,0.162,0.361,0.36,0.361h32.614C33.172,33.333,33.334,33.171,33.333,32.972L33.333,32.972z M15.229,24.75
	c0,0.198-0.162,0.36-0.359,0.36H9.715c-0.197,0-0.359-0.162-0.359-0.36V8.582c0-0.198,0.162-0.36,0.359-0.36h5.154
	c0.197,0,0.359,0.162,0.359,0.36V24.75z M23.979,24.75c0,0.198-0.162,0.36-0.359,0.36h-5.154c-0.197,0-0.359-0.162-0.359-0.36V8.582
	c0-0.198,0.162-0.36,0.359-0.36h5.154c0.197,0,0.359,0.162,0.359,0.36V24.75z"/>
</svg>
