<?xml version="1.0" encoding="utf-8"?>
<!-- Generator: Adobe Illustrator 15.0.0, SVG Export Plug-In  -->
<!DOCTYPE svg PUBLIC "-//W3C//DTD SVG 1.1//EN" "http://www.w3.org/Graphics/SVG/1.1/DTD/svg11.dtd" [
	<!ENTITY ns_flows "http://ns.adobe.com/Flows/1.0/">
]>
<svg version="1.1"
	 xmlns="http://www.w3.org/2000/svg" xmlns:xlink="http://www.w3.org/1999/xlink" xmlns:a="http://ns.adobe.com/AdobeSVGViewerExtensions/3.0/"
	 x="0px" y="0px" width="33px" height="33px" viewBox="0 0 33 33" enable-background="new 0 0 33 33" xml:space="preserve">
<defs>
</defs>
<path fill="#010101" d="M32.974,0H0.36C0.162,0,0,0.162,0,0.36v32.612c0,0.199,0.162,0.361,0.36,0.361h32.614
	c0.198,0,0.36-0.162,0.36-0.361V0.36C33.334,0.162,33.172,0,32.974,0z M24.732,16.846l-6.688,3.861
	c-0.172,0.1-0.452,0.262-0.624,0.36l-6.688,3.86c-0.172,0.1-0.312,0.019-0.312-0.18v-7.724c0-0.198,0-0.522,0-0.72V8.582
	c0-0.198,0.14-0.279,0.312-0.18l6.689,3.862c0.171,0.099,0.452,0.261,0.624,0.36l6.687,3.862
	C24.904,16.585,24.904,16.747,24.732,16.846z"/>
</svg>
