<?xml version="1.0" encoding="utf-8"?>
<!-- Generator: Adobe Illustrator 15.0.0, SVG Export Plug-In  -->
<!DOCTYPE svg PUBLIC "-//W3C//DTD SVG 1.1//EN" "http://www.w3.org/Graphics/SVG/1.1/DTD/svg11.dtd" [
	<!ENTITY ns_flows "http://ns.adobe.com/Flows/1.0/">
]>
<svg version="1.1"
	 xmlns="http://www.w3.org/2000/svg" xmlns:xlink="http://www.w3.org/1999/xlink" xmlns:a="http://ns.adobe.com/AdobeSVGViewerExtensions/3.0/"
	 x="0px" y="0px" width="33px" height="33px" viewBox="0 0 33 33" enable-background="new 0 0 33 33" xml:space="preserve">
<defs>
</defs>
<path fill="#010101" d="M32.974,0H0.36C0.162,0,0,0.162,0,0.359v32.61c0,0.198,0.162,0.358,0.36,0.358h32.614
	c0.198,0,0.36-0.16,0.36-0.358V0.359C33.334,0.162,33.172,0,32.974,0z M16.179,16.303c0,0.199,0,0.523,0,0.721v3.479
	c0,0.198-0.14,0.278-0.312,0.181l-3.013-1.738c-0.172-0.099-0.453-0.261-0.624-0.358l-3.012-1.739c-0.171-0.1-0.171-0.261,0-0.357
	l3.012-1.744c0.172-0.1,0.452-0.26,0.624-0.358l3.013-1.738c0.172-0.098,0.312-0.017,0.312,0.183V16.303z M23.681,16.303
	c0,0.199,0,0.523,0,0.721v3.479c0,0.198-0.14,0.278-0.312,0.181l-3.014-1.738c-0.172-0.099-0.453-0.261-0.623-0.358l-3.013-1.739
	c-0.171-0.1-0.171-0.261,0-0.357l3.013-1.744c0.172-0.1,0.451-0.26,0.623-0.358l3.014-1.738c0.172-0.098,0.312-0.017,0.312,0.183
	V16.303z"/>
</svg>
